<svg width="31" height="30" viewBox="0 0 31 30" fill="none" xmlns="http://www.w3.org/2000/svg">
<path fill-rule="evenodd" clip-rule="evenodd" d="M15.3209 1C21.3004 1.00104 27.0138 4.07836 29.0174 9.73677C31.197 15.8924 29.7787 23.0784 24.481 26.8695C19.3095 30.5703 12.4147 29.0736 7.32517 25.26C2.45646 21.6118 -0.299072 15.5238 1.60985 9.73199C3.49007 4.0272 9.33792 0.998956 15.3209 1Z" stroke="#3F3F3F" stroke-width="1.5"/>
<g clip-path="url(#clip0)">
<path d="M19.7228 16L20.1673 13.1045H17.3888V11.2255C17.3888 10.4335 17.7768 9.66099 19.0213 9.66099H20.2843V7.19599C20.2843 7.19599 19.1383 7.00049 18.0423 7.00049C15.7543 7.00049 14.2588 8.38749 14.2588 10.898V13.105H11.7153V16.0005H14.2588V23.0005H17.3888V16.0005L19.7228 16Z" fill="black"/>
</g>
<defs>
<clipPath id="clip0">
<rect width="16" height="16" fill="white" transform="translate(8 7)"/>
</clipPath>
</defs>
</svg>
