<svg width="75" height="37" viewBox="0 0 75 37" fill="none" xmlns="http://www.w3.org/2000/svg">
<path d="M10.6371 15.3696C10.6272 15.4618 10.6164 15.5508 10.6048 15.6366C10.5996 15.7206 10.583 15.8008 10.5548 15.8772C10.5265 15.9535 10.4835 16.0269 10.4257 16.0973C10.3744 16.1659 10.3008 16.2301 10.2051 16.2898C9.82866 16.5269 9.45024 16.7439 9.06984 16.9407C8.69118 17.1439 8.31451 17.3673 7.93983 17.6109C7.86846 17.6573 7.80514 17.6946 7.74986 17.723C7.69459 17.7514 7.64083 17.7724 7.58858 17.7862C7.47103 17.8172 7.37825 17.8107 7.31026 17.7666C7.24227 17.7225 7.18296 17.6589 7.13234 17.5758L0.212322 5.34414C0.11458 5.19077 0.0508344 5.05943 0.0210863 4.95014C-0.0174113 4.80869 -0.00319459 4.68091 0.0637365 4.56679C0.128918 4.44623 0.254859 4.33032 0.441561 4.21906C0.633044 4.09964 0.881788 3.97201 1.18779 3.83617C1.50033 3.6986 1.88295 3.53566 2.33566 3.34733C2.55548 3.25489 2.74201 3.18157 2.89525 3.12737C3.04674 3.06674 3.17799 3.02178 3.28901 2.99249C3.4784 2.94254 3.61123 2.94195 3.68751 2.99074C3.76857 3.03137 3.85271 3.10909 3.93996 3.22389L7.97911 10.696L8.62199 2.68137C8.63318 2.56817 8.64308 2.47598 8.6517 2.4048C8.66686 2.33189 8.7075 2.2626 8.77361 2.19692C8.84451 2.1231 8.95547 2.04215 9.10649 1.95408C9.26229 1.85785 9.48818 1.73625 9.78415 1.58927C10.246 1.35721 10.6307 1.17647 10.9385 1.04705C11.2462 0.917637 11.4981 0.827089 11.694 0.775409C11.9422 0.709947 12.11 0.696673 12.1976 0.735585C12.2917 0.772775 12.3537 0.846018 12.3834 0.955312C12.4022 0.998594 12.4055 1.0494 12.3934 1.10772C12.3861 1.15789 12.379 1.22178 12.3721 1.29939L10.6371 15.3696Z" fill="#212121"/>
<path d="M9.49994 34.2268C9.36058 34.2291 9.25929 34.2042 9.19608 34.152C9.13111 34.0933 9.08726 34.0222 9.06451 33.9386C9.05926 33.9193 9.05576 33.9064 9.05401 33.9C9.05879 33.8919 9.05856 33.8781 9.05331 33.8589C8.91656 33.1507 8.77434 32.4096 8.62663 31.6355C8.4837 30.8532 8.34141 30.0604 8.19976 29.2571C8.05636 28.4473 7.91383 27.6408 7.77219 26.8375C7.63054 26.0342 7.49501 25.2534 7.36561 24.4951L7.35582 24.4977C7.32969 24.5046 7.26071 24.5469 7.14888 24.6246C7.04183 24.6942 6.91693 24.7754 6.7742 24.8682C6.63624 24.9528 6.49414 25.0351 6.34791 25.115C6.20167 25.1949 6.07957 25.2478 5.98161 25.2736C5.89671 25.296 5.82592 25.2803 5.76924 25.2263C5.71909 25.1706 5.68351 25.1042 5.66251 25.0271C5.64676 24.9692 5.64168 24.912 5.64728 24.8554C5.68711 24.3074 5.74223 23.7898 5.81263 23.3027C5.88303 22.8155 5.94992 22.3156 6.01332 21.8027C6.43791 21.4082 6.89171 21.0439 7.37473 20.7097C7.856 20.3692 8.35016 20.0631 8.8572 19.7915C9.36903 19.5118 9.88722 19.2683 10.4118 19.061C10.9346 18.8473 11.4507 18.6733 11.9601 18.5389C12.6719 18.3512 13.3614 18.2485 14.0286 18.231C14.7023 18.2118 15.3122 18.2921 15.8581 18.472C16.4088 18.6437 16.8801 18.9224 17.2721 19.3083C17.6689 19.686 17.9504 20.1802 18.1167 20.791C18.1884 21.0546 18.1988 21.324 18.1477 21.5993C18.0966 21.8746 18.007 22.1498 17.8789 22.4248C17.7555 22.6916 17.6058 22.9516 17.4297 23.2047C17.2519 23.4515 17.073 23.6813 16.8929 23.8942C17.2676 24.0365 17.6045 24.1681 17.9034 24.2891C18.2071 24.402 18.4742 24.5348 18.7048 24.6876C18.9354 24.8404 19.1305 25.0301 19.2902 25.2567C19.4481 25.4769 19.5752 25.7638 19.6714 26.1174C19.8184 26.6574 19.8613 27.2008 19.8001 27.7475C19.7437 28.2861 19.6035 28.8123 19.3794 29.3262C19.1601 29.832 18.8649 30.3164 18.494 30.7794C18.1296 31.2408 17.7096 31.6651 17.2341 32.0523C16.7633 32.4315 16.245 32.7646 15.6792 33.0517C15.1216 33.3434 14.5392 33.5694 13.9318 33.7296C13.7098 33.7882 13.4065 33.8441 13.022 33.8973C12.6375 33.9505 12.2308 33.9992 11.8019 34.0434C11.3812 34.0924 10.9612 34.1308 10.5418 34.1587C10.1307 34.1914 9.78345 34.2141 9.49994 34.2268ZM11.1365 22.4565C11.2189 23.2479 11.3244 24.0469 11.453 24.8537C11.5798 25.654 11.7112 26.4324 11.8471 27.189C11.9878 27.9374 12.1254 28.6488 12.26 29.323C12.3945 29.9973 12.5098 30.6008 12.6058 31.1336C12.867 31.0647 13.1443 30.9778 13.4377 30.8728C13.7359 30.7597 14.0256 30.6282 14.3068 30.4782C14.5879 30.3283 14.8541 30.1616 15.1051 29.9782C15.361 29.7867 15.5739 29.5789 15.7439 29.3549C15.9139 29.1309 16.0336 28.8892 16.103 28.6297C16.1706 28.3638 16.1642 28.083 16.0837 27.7873C16.0347 27.6072 15.9363 27.4644 15.7885 27.3587C15.639 27.2465 15.463 27.1655 15.2604 27.1155C15.0626 27.0575 14.8505 27.0238 14.624 27.0147C14.3957 26.9991 14.1752 26.9987 13.9622 27.0135C13.754 27.0202 13.5624 27.0363 13.3874 27.0618C13.2171 27.0791 13.0878 27.0926 12.9994 27.1021C12.9044 27.1134 12.8369 27.0967 12.7968 27.0522C12.7567 27.0077 12.7261 26.9468 12.7051 26.8697C12.6824 26.7861 12.7005 26.6469 12.7595 26.4522C12.8185 26.2575 12.9 25.9914 13.0042 25.6538L13.2397 24.8992C13.3985 24.7884 13.5661 24.658 13.7423 24.5082C13.925 24.3566 14.0879 24.1965 14.231 24.0278C14.3723 23.8528 14.4808 23.6726 14.5563 23.4872C14.6301 23.2955 14.6417 23.1064 14.5909 22.92C14.4474 22.3928 14.2205 22.022 13.9101 21.8075C13.6046 21.585 13.233 21.5314 12.7955 21.6468C12.2991 21.7777 11.7461 22.0476 11.1365 22.4565Z" fill="#212121"/>
<path d="M13.6429 11.7212C13.7902 10.8168 13.9369 9.92234 14.0829 9.03787C14.229 8.1534 14.3664 7.24504 14.4952 6.31278C14.5231 6.09445 14.5531 5.94629 14.5853 5.8683C14.6247 5.78409 14.706 5.73256 14.8292 5.71371C15.4101 5.63721 16.0182 5.55911 16.6535 5.4794C17.2893 5.39305 17.9069 5.2722 18.5065 5.11685C18.5272 5.1115 18.5578 5.1101 18.5983 5.11267C18.6725 5.11739 18.7079 5.14631 18.7044 5.19945L17.1577 14.8457C17.123 15.0636 17.0894 15.2149 17.0568 15.2995C17.0246 15.3775 16.9469 15.4259 16.8237 15.4448C16.2389 15.5811 15.646 15.7368 15.0451 15.9121C14.4442 16.0874 13.8093 16.2638 13.1405 16.4415C13.1198 16.4468 13.0892 16.4482 13.0487 16.4456C12.9745 16.4409 12.9396 16.4054 12.9439 16.3389C12.9444 16.3323 12.957 16.2431 12.9818 16.0712C13.0066 15.8994 13.0381 15.6779 13.0761 15.4069C13.121 15.1363 13.168 14.8325 13.2172 14.4954C13.2664 14.1584 13.3155 13.8214 13.3647 13.4843C13.4207 13.1477 13.4723 12.8242 13.5198 12.5137C13.5672 12.2033 13.6083 11.9391 13.6429 11.7212ZM14.9229 3.81878C14.9618 3.53445 14.9897 3.31612 15.0065 3.16378C15.03 3.01187 15.0475 2.8996 15.059 2.82696C15.071 2.74769 15.0776 2.69808 15.0789 2.67816C15.0802 2.65823 15.0811 2.64495 15.0815 2.6383C15.0892 2.62545 15.0938 2.60574 15.0956 2.57917C15.1045 2.54639 15.1154 2.48372 15.1282 2.39115C15.1415 2.29195 15.161 2.14979 15.1867 1.96467C15.2123 1.77954 15.2493 1.52511 15.2976 1.20136C15.3255 0.983027 15.3555 0.834865 15.3878 0.756874C15.4271 0.672669 15.5084 0.621139 15.6316 0.602283C16.2125 0.525787 16.8206 0.447684 17.4559 0.367974C18.0917 0.281622 18.7094 0.160773 19.309 0.00542935C19.3296 7.2654e-05 19.3602 -0.00132028 19.4007 0.00125054C19.4183 0.0423886 19.4436 0.0706709 19.4764 0.0860974L19.5055 0.107952L19.104 2.82372C19.0694 3.04162 19.0324 3.19268 18.993 3.27688C18.9603 3.36151 18.886 3.41015 18.77 3.42279C18.1895 3.49265 17.6017 3.57204 17.0064 3.66096C16.4111 3.74988 15.7822 3.83666 15.1194 3.9213C15.0987 3.92666 15.0682 3.92805 15.0277 3.92548C14.9535 3.92077 14.9185 3.8852 14.9229 3.81878Z" fill="#212121"/>
<path d="M26.739 9.64358C26.6335 9.51293 26.5009 9.38597 26.3414 9.26268C26.1884 9.13766 26.0193 9.03068 25.8341 8.94172C25.6489 8.85275 25.4576 8.79296 25.2603 8.76232C25.0612 8.72525 24.8637 8.73256 24.6678 8.78424C24.4 8.85487 24.1783 9.03049 24.0027 9.31109C23.8271 9.5917 23.701 9.93849 23.6244 10.3515C23.5461 10.758 23.5186 11.2097 23.5418 11.7066C23.5698 12.1953 23.6521 12.6904 23.7886 13.1919C23.8726 13.5005 23.9783 13.7861 24.1058 14.0488C24.2381 14.3033 24.391 14.518 24.5645 14.6927C24.7381 14.8674 24.9329 14.9917 25.149 15.0656C25.3717 15.1378 25.6136 15.1395 25.8748 15.0706C26.2667 14.9672 26.5935 14.7535 26.8553 14.4295C27.1153 14.0991 27.3071 13.7108 27.4307 13.2648C27.4005 13.1281 27.3665 12.9648 27.3288 12.7749C27.2912 12.585 27.2462 12.3556 27.1941 12.0869C27.1402 11.8117 27.0773 11.4906 27.0054 11.1237C26.9383 10.7486 26.8594 10.3043 26.7686 9.79082L26.739 9.64358ZM31.5669 14.613C31.6749 15.2668 31.6898 15.9002 31.6117 16.5134C31.5336 17.1266 31.3804 17.7079 31.152 18.2574C30.9318 18.8116 30.6454 19.3282 30.2928 19.8071C29.9485 20.2907 29.559 20.7242 29.1244 21.1076C28.6963 21.4892 28.2353 21.8141 27.7413 22.0822C27.249 22.3568 26.745 22.5621 26.229 22.6982C25.9547 22.7705 25.6713 22.835 25.3787 22.8915C25.0861 22.948 24.7948 22.9835 24.5047 22.998C24.2165 23.0189 23.9342 23.0107 23.6581 22.9732C23.3837 22.9423 23.1275 22.8755 22.8896 22.7729L22.8869 22.7632C22.8782 22.7311 22.8704 22.6125 22.8636 22.4076C22.8634 22.2009 22.8601 21.9572 22.8536 21.6764C22.8555 21.4003 22.8547 21.1145 22.8513 20.8191C22.8544 20.522 22.8549 20.2669 22.8529 20.0538C22.8546 19.9569 22.8641 19.8889 22.8814 19.8499C22.8988 19.8109 22.9238 19.787 22.9565 19.7784C22.9957 19.7681 23.0194 19.7653 23.0277 19.77C23.2503 19.8422 23.4538 19.8953 23.638 19.9294C23.8306 19.9682 24.0244 19.986 24.2195 19.9827C24.4229 19.9842 24.6382 19.9653 24.8655 19.926C25.0928 19.8867 25.3534 19.8283 25.6473 19.7508C26.1044 19.6302 26.4857 19.4366 26.7911 19.17C27.0965 18.9034 27.339 18.5983 27.5184 18.2546C27.6979 17.911 27.8172 17.5522 27.8764 17.1783C27.9439 16.8091 27.9633 16.456 27.9346 16.119C27.5484 16.5516 27.1399 16.9281 26.7091 17.2485C26.2783 17.5688 25.818 17.7936 25.3282 17.9228C24.6556 18.1002 24.0376 18.1185 23.4743 17.9777C22.9128 17.8433 22.4107 17.5933 21.9682 17.2277C21.5257 16.8621 21.1474 16.4106 20.8332 15.8733C20.5237 15.3279 20.2824 14.737 20.1091 14.1005C19.9726 13.599 19.881 13.0823 19.8342 12.5502C19.7921 12.0101 19.7978 11.478 19.8512 10.954C19.9111 10.4283 20.0222 9.92353 20.1845 9.43972C20.345 8.94947 20.5629 8.50268 20.8381 8.09933C21.1133 7.69599 21.446 7.34981 21.8363 7.06081C22.2249 6.76537 22.6771 6.54961 23.1931 6.41352C23.7547 6.26537 24.3071 6.25057 24.8504 6.36912C25.4001 6.48595 25.9199 6.6727 26.4098 6.92937C26.3913 6.8102 26.3766 6.7176 26.3657 6.65159C26.3529 6.57915 26.3544 6.52019 26.37 6.47473C26.3856 6.42926 26.4202 6.38913 26.4737 6.35434C26.5338 6.31783 26.6191 6.27121 26.7297 6.21448C26.798 6.18268 26.9216 6.12251 27.1005 6.03397C27.2776 5.93901 27.4889 5.82815 27.7344 5.70138C27.9799 5.57461 28.2506 5.43774 28.5466 5.29076C28.8426 5.14378 29.1409 4.99272 29.4417 4.83759C29.5148 4.79763 29.584 4.76904 29.6493 4.75181C29.8518 4.69841 29.988 4.80029 30.058 5.05745C30.0667 5.0896 30.0755 5.12174 30.0842 5.15389C30.0912 5.17961 30.0959 5.2094 30.0981 5.24327L31.5669 14.613Z" fill="#212121"/>
<path d="M37.6041 17.4701C36.6833 17.2272 35.9137 16.8657 35.2954 16.3857C34.6837 15.9073 34.2092 15.3618 33.872 14.7492C33.5365 14.1301 33.3378 13.4713 33.276 12.7728C33.2159 12.0679 33.2794 11.3715 33.4667 10.6836C33.6539 9.99565 33.9458 9.37325 34.3424 8.81635C34.7407 8.25301 35.212 7.78131 35.7565 7.40122C36.3026 7.01471 36.9077 6.73331 37.5716 6.55702C38.2373 6.3743 38.9321 6.31638 39.6558 6.38326C39.7621 6.40439 39.8204 6.39567 39.8309 6.3571C39.8502 6.28638 39.8579 6.2195 39.854 6.15647C39.8585 6.08874 39.8668 6.03237 39.8791 5.98736C39.8983 5.91664 39.9245 5.87187 39.9576 5.85304C39.9907 5.83422 40.0236 5.82911 40.0563 5.83773C41.3036 6.16676 42.3264 6.58813 43.1245 7.10185C43.9244 7.60914 44.533 8.17623 44.9503 8.80312C45.3676 9.43001 45.6111 10.1041 45.6808 10.8253C45.7505 11.5465 45.683 12.2833 45.4782 13.0355C45.2175 13.9934 44.8215 14.8054 44.2902 15.4715C43.7589 16.1375 43.1384 16.656 42.4284 17.0269C41.7251 17.3995 40.9578 17.6209 40.1268 17.6911C39.3005 17.7695 38.4596 17.6958 37.6041 17.4701ZM37.267 11.5723C37.1725 11.9195 37.1148 12.2729 37.0939 12.6326C37.0795 12.994 37.1196 13.3354 37.2142 13.6566C37.3152 13.9796 37.4826 14.2649 37.7161 14.5126C37.9515 14.7538 38.2781 14.9295 38.6961 15.0398C39 15.1062 39.2787 15.1108 39.5323 15.0536C39.7941 14.9918 40.032 14.8892 40.246 14.7458C40.4618 14.596 40.6543 14.4159 40.8235 14.2056C40.9993 13.997 41.1507 13.7751 41.2777 13.5399C41.413 13.2999 41.527 13.0612 41.6196 12.8238C41.7122 12.5864 41.7856 12.3681 41.8399 12.1687C41.9309 11.8344 41.9679 11.4928 41.9509 11.1438C41.9404 10.7965 41.8705 10.4748 41.741 10.1788C41.6116 9.88284 41.4201 9.62215 41.1664 9.39676C40.9211 9.16666 40.609 9.00166 40.2302 8.90174C39.8384 8.79838 39.4771 8.82711 39.1464 8.98793C38.8174 9.14232 38.5257 9.36514 38.2715 9.65638C38.0237 9.94935 37.8132 10.2728 37.6399 10.6267C37.4683 10.9743 37.344 11.2895 37.267 11.5723Z" fill="#212121"/>
<path d="M25.1421 36.0769C24.2213 35.834 23.4517 35.4725 22.8335 34.9924C22.2217 34.5141 21.7472 33.9686 21.41 33.3559C21.0745 32.7368 20.8759 32.0781 20.814 31.3796C20.7539 30.6746 20.8174 29.9782 21.0047 29.2903C21.1919 28.6024 21.4838 27.98 21.8804 27.4231C22.2787 26.8597 22.7501 26.388 23.2945 26.008C23.8407 25.6214 24.4457 25.34 25.1097 25.1637C25.7754 24.981 26.4701 24.9231 27.1938 24.99C27.3001 25.0111 27.3584 25.0024 27.3689 24.9638C27.3882 24.8931 27.3959 24.8262 27.3921 24.7632C27.3965 24.6955 27.4048 24.6391 27.4171 24.5941C27.4363 24.5234 27.4625 24.4786 27.4956 24.4598C27.5288 24.4409 27.5616 24.4358 27.5943 24.4445C28.8417 24.7735 29.8644 25.1949 30.6625 25.7086C31.4624 26.2159 32.071 26.783 32.4883 27.4098C32.9057 28.0367 33.1492 28.7108 33.2188 29.432C33.2885 30.1533 33.221 30.89 33.0162 31.6422C32.7555 32.6001 32.3595 33.4121 31.8282 34.0782C31.297 34.7443 30.6764 35.2628 29.9665 35.6336C29.2631 36.0062 28.4959 36.2276 27.6648 36.2978C26.8385 36.3762 25.9976 36.3025 25.1421 36.0769ZM24.805 30.1791C24.7105 30.5262 24.6528 30.8797 24.6319 31.2394C24.6175 31.6008 24.6576 31.9421 24.7522 32.2633C24.8533 32.5863 25.0206 32.8716 25.2542 33.1193C25.4895 33.3605 25.8161 33.5363 26.2341 33.6465C26.538 33.7129 26.8167 33.7175 27.0703 33.6604C27.3321 33.5985 27.57 33.4959 27.784 33.3525C27.9998 33.2027 28.1923 33.0226 28.3615 32.8123C28.5373 32.6037 28.6887 32.3818 28.8157 32.1466C28.951 31.9066 29.065 31.668 29.1576 31.4306C29.2502 31.1931 29.3236 30.9748 29.3779 30.7755C29.4689 30.4412 29.5059 30.0995 29.4889 29.7505C29.4784 29.4032 29.4085 29.0815 29.2791 28.7856C29.1496 28.4896 28.9581 28.2289 28.7045 28.0035C28.4591 27.7734 28.147 27.6084 27.7683 27.5085C27.3764 27.4051 27.0151 27.4338 26.6844 27.5947C26.3554 27.749 26.0637 27.9719 25.8095 28.2631C25.5617 28.5561 25.3512 28.8795 25.1779 29.2335C25.0063 29.581 24.882 29.8962 24.805 30.1791Z" fill="#212121"/>
<path d="M40.9094 30.9424C39.9886 31.1853 39.1386 31.251 38.3593 31.1396C37.5865 31.0265 36.8986 30.7876 36.2954 30.423C35.6904 30.052 35.1838 29.5793 34.7754 29.0048C34.3653 28.4239 34.0667 27.7895 33.8794 27.1016C33.6922 26.4137 33.6289 25.731 33.6894 25.0535C33.7483 24.3696 33.9169 23.729 34.1954 23.1319C34.472 22.5283 34.8531 21.9868 35.3386 21.5073C35.8223 21.0214 36.3945 20.6293 37.0553 20.331C37.158 20.297 37.2041 20.2607 37.1936 20.2221C37.1744 20.1514 37.1471 20.0897 37.1117 20.037C37.0812 19.9762 37.0598 19.9232 37.0475 19.8782C37.0283 19.8075 37.0282 19.7558 37.0473 19.7232C37.0665 19.6906 37.0924 19.67 37.125 19.6614C38.3724 19.3324 39.4721 19.1939 40.4242 19.2459C41.3746 19.2915 42.1896 19.4831 42.8695 19.8206C43.5493 20.158 44.1025 20.6219 44.5292 21.2122C44.9558 21.8025 45.2715 22.4738 45.4763 23.226C45.737 24.184 45.8065 25.0821 45.6847 25.9204C45.5629 26.7588 45.2888 27.5133 44.8623 28.1839C44.4424 28.8528 43.8904 29.4222 43.2064 29.892C42.5306 30.3666 41.765 30.7167 40.9094 30.9424ZM37.622 26.0007C37.7165 26.3478 37.846 26.6823 38.0106 27.0041C38.1817 27.3242 38.3898 27.6001 38.6349 27.8317C38.8864 28.0617 39.1763 28.2264 39.5043 28.3259C39.8306 28.419 40.2028 28.4104 40.6207 28.3001C40.9177 28.208 41.1614 28.0748 41.3519 27.9005C41.5473 27.7181 41.7012 27.5121 41.8137 27.2826C41.9245 27.0467 41.9997 26.796 42.0395 26.5305C42.0857 26.2634 42.1041 25.9967 42.0947 25.7304C42.09 25.456 42.0675 25.1933 42.0271 24.9421C41.9867 24.6909 41.9394 24.4656 41.8852 24.2663C41.7942 23.932 41.6527 23.6179 41.4607 23.324C41.2752 23.0284 41.0513 22.7843 40.7889 22.5916C40.5265 22.399 40.2282 22.2675 39.8941 22.1972C39.5647 22.1187 39.2107 22.1294 38.8319 22.2293C38.44 22.3327 38.1417 22.5354 37.937 22.8375C37.7305 23.1331 37.5911 23.4696 37.5188 23.847C37.453 24.2227 37.435 24.6064 37.4647 24.9982C37.4926 25.3836 37.545 25.7178 37.622 26.0007Z" fill="#212121"/>
<path d="M50.8043 18.534L51.3624 21.9734C51.4392 22.4355 51.5145 22.9049 51.5882 23.3816C51.6685 23.8565 51.7435 24.3122 51.8133 24.7486C51.8831 25.185 51.9474 25.5883 52.0062 25.9587C52.065 26.3291 52.1128 26.6334 52.1497 26.8718L52.6261 25.9605L53.3794 24.4078C53.4746 24.2173 53.5665 24.0277 53.6551 23.839C53.7437 23.6502 53.8245 23.4842 53.8975 23.3409C53.9687 23.1912 54.0265 23.0692 54.0708 22.9748C54.1134 22.874 54.1394 22.8154 54.149 22.7991L58.0135 21.4903C58.0313 21.4787 58.0501 21.4703 58.0697 21.4652C58.0958 21.4583 58.1186 21.4522 58.1382 21.4471C58.2492 21.4178 58.3126 21.4321 58.3284 21.4899C58.3406 21.5349 58.2992 21.6527 58.204 21.8432L56.0566 26.0272C55.9597 26.2113 55.8437 26.4279 55.7085 26.6772C55.5782 26.9183 55.4311 27.188 55.2672 27.4861L57.1542 28.7869L60.3341 30.7491C60.3624 30.7761 60.3988 30.7941 60.4433 30.803C60.4859 30.8055 60.5254 30.8089 60.5615 30.8132C60.6042 30.8157 60.6412 30.8231 60.6726 30.8355C60.7088 30.8398 60.7312 30.858 60.74 30.8901C60.747 30.9158 60.7457 30.9369 60.7361 30.9532C60.7331 30.9677 60.7107 31.0012 60.6689 31.0536C60.6224 31.1141 60.5354 31.2059 60.408 31.3291C60.287 31.4506 60.1426 31.5886 59.9747 31.7432C59.8068 31.8977 59.6258 32.0557 59.4317 32.2171C59.2395 32.385 59.0502 32.5383 58.864 32.677C58.6795 32.8221 58.5061 32.9437 58.3437 33.0416C58.1832 33.146 58.0539 33.2111 57.9559 33.2369C57.8776 33.2576 57.7939 33.259 57.7051 33.2411C57.6227 33.2215 57.5219 33.1723 57.4024 33.0935C57.2398 32.9848 57.0324 32.8397 56.78 32.6582C56.5359 32.4814 56.2693 32.2865 55.9803 32.0733C55.6895 31.8537 55.3905 31.6294 55.0832 31.4004C54.7807 31.1632 54.489 30.9404 54.2083 30.7319C53.9324 30.5153 53.6806 30.3233 53.4531 30.1559C53.2303 29.9804 53.0557 29.8404 52.9293 29.7359C52.9054 29.7767 52.8797 29.811 52.8523 29.8389C52.8232 29.8604 52.7958 29.8883 52.7701 29.9226C52.751 29.9552 52.7369 29.9934 52.7278 30.0371C52.7169 30.0745 52.7203 30.1253 52.7378 30.1896C52.7448 30.2153 52.7584 30.2909 52.7785 30.4165C52.797 30.5357 52.8192 30.6814 52.8451 30.8538C52.8757 31.0179 52.9067 31.1958 52.9378 31.3874C52.969 31.5791 52.9975 31.761 53.0234 31.9334C53.0541 32.0975 53.0795 32.2424 53.0997 32.368C53.1182 32.4872 53.1309 32.5596 53.1379 32.5853C53.1501 32.6303 53.1606 32.6689 53.1694 32.7011C53.1829 32.7251 53.1932 32.7499 53.2002 32.7756C53.2194 32.8464 53.2082 32.9079 53.1664 32.9602C53.1295 33.0044 53.0233 33.0772 52.8479 33.1786L50.5044 34.6754C50.4396 34.72 50.3537 34.7771 50.2466 34.8467C50.1395 34.9163 50.0305 34.9657 49.9195 34.995C49.8281 35.0191 49.7403 35.0182 49.6562 34.9921C49.5787 34.9644 49.5233 34.8894 49.49 34.7672L46.9419 20.5451C46.9332 20.513 46.922 20.4849 46.9085 20.4609C46.8932 20.4305 46.8812 20.3992 46.8725 20.3671C46.8567 20.3092 46.8656 20.2517 46.899 20.1947C46.9373 20.1295 47.0384 20.0511 47.2025 19.9596L49.7793 18.5873C49.8477 18.5555 49.9345 18.5016 50.0398 18.4256C50.1451 18.3496 50.2533 18.2969 50.3643 18.2677C50.4492 18.2453 50.5328 18.2439 50.6151 18.2635C50.704 18.2814 50.7633 18.345 50.7931 18.4543C50.7966 18.4672 50.7968 18.4809 50.7938 18.4955C50.7973 18.5083 50.8008 18.5212 50.8043 18.534Z" fill="#212121"/>
<path d="M59.9195 25.9848C59.9212 25.9783 59.9188 25.9743 59.9123 25.9725C59.9141 25.9661 59.9158 25.9597 59.9176 25.9532C59.9403 25.8697 59.9974 25.8399 60.0888 25.8641C60.1476 25.8796 60.1937 25.9158 60.2272 25.9729C60.4219 26.2861 60.6648 26.5638 60.9559 26.806C61.2535 27.0498 61.5982 27.2235 61.99 27.3268C62.0945 27.3544 62.218 27.3766 62.3604 27.3935C62.5045 27.404 62.6456 27.3998 62.7837 27.3811C62.9218 27.3624 63.0414 27.3216 63.1425 27.2587C63.2519 27.1911 63.3241 27.093 63.3591 26.9644C63.3976 26.823 63.3967 26.6849 63.3563 26.5503C63.3177 26.4092 63.2502 26.2845 63.1536 26.1764C63.1006 26.1141 63.0073 26.0068 62.8738 25.8545C62.742 25.6957 62.5989 25.527 62.4445 25.3485C62.2967 25.1717 62.1536 25.003 62.0153 24.8425C61.8835 24.6837 61.792 24.57 61.7407 24.5013C61.5063 24.2052 61.3315 23.9214 61.2165 23.6498C61.1079 23.38 61.0403 23.1141 61.0136 22.8521C60.9887 22.5837 60.999 22.3143 61.0446 22.0438C61.0903 21.7733 61.1533 21.4902 61.2338 21.1944C61.3563 20.7444 61.5926 20.3519 61.9427 20.0171C62.2929 19.6822 62.705 19.4154 63.1791 19.2166C63.6597 19.0195 64.175 18.9005 64.7252 18.8595C65.277 18.8122 65.8142 18.8574 66.3366 18.9952C66.7677 19.1089 67.1746 19.2852 67.5576 19.524C67.9406 19.7628 68.2697 20.0839 68.5449 20.4873C68.4673 20.9009 68.3816 21.3055 68.2879 21.7012C68.1943 22.0968 68.1019 22.5134 68.0107 22.9511C67.988 23.0346 67.9526 23.0873 67.9047 23.1091C67.8585 23.1245 67.8093 23.1253 67.7571 23.1115C67.7114 23.0995 67.6765 23.0731 67.6526 23.0323C67.5409 22.8513 67.4251 22.6725 67.3051 22.4962C67.1869 22.3134 67.0536 22.1473 66.9053 21.9979C66.7652 21.8439 66.606 21.7088 66.4275 21.5929C66.2509 21.4705 66.0515 21.38 65.8295 21.3214C65.6923 21.2852 65.5517 21.2619 65.4075 21.2514C65.2651 21.2346 65.1297 21.2436 65.0012 21.2786C64.8744 21.3072 64.7611 21.3634 64.6612 21.4474C64.5679 21.533 64.4994 21.6562 64.4557 21.8169C64.4049 22.0034 64.384 22.1701 64.393 22.3172C64.402 22.4643 64.4739 22.6245 64.6087 22.7978L66.1 24.4936C66.3718 24.8065 66.5792 25.0989 66.7221 25.3709C66.8734 25.6382 66.9789 25.8934 67.0387 26.1366C67.0985 26.3797 67.1191 26.6126 67.1006 26.8351C67.0903 27.0529 67.0572 27.2646 67.0012 27.4703C66.8437 28.049 66.5674 28.5239 66.1724 28.8952C65.7856 29.2617 65.3365 29.536 64.825 29.7181C64.3152 29.8937 63.7659 29.9831 63.1771 29.9862C62.593 29.9975 62.0267 29.9308 61.4781 29.7861C61.0602 29.6759 60.6675 29.5241 60.3002 29.3307C59.9376 29.1455 59.6143 28.9189 59.3302 28.6511L59.9195 25.9848Z" fill="#212121"/>
<path d="M55.2231 10.9238C55.1867 10.7129 55.1476 10.4923 55.106 10.2621C55.0709 10.0302 55.0364 9.78782 55.0025 9.5349C54.7473 9.18877 54.4502 8.93295 54.1112 8.76742C53.7704 8.59547 53.3943 8.56376 52.9829 8.67228C52.5779 8.77909 52.2666 8.98525 52.0488 9.29078C51.8292 9.58987 51.68 9.92897 51.6012 10.3081C51.5224 10.6872 51.4946 11.0735 51.5177 11.4671C51.5456 11.8525 51.598 12.1866 51.675 12.4695C51.7695 12.8167 51.8827 13.1555 52.0147 13.4859C52.1531 13.8146 52.3057 14.1051 52.4724 14.3574C52.6456 14.608 52.8342 14.7994 53.0382 14.9317C53.2404 15.0575 53.4591 15.0894 53.6942 15.0274C54.2636 14.8565 54.6956 14.6047 54.99 14.2721C55.2844 13.9395 55.493 13.5744 55.6158 13.1768L55.2231 10.9238ZM59.8703 14.5352C59.8738 14.548 59.8749 14.565 59.8736 14.586C59.8771 14.5988 59.8806 14.6117 59.8841 14.6246C59.8929 14.6567 59.8999 14.6824 59.9051 14.7017C59.9169 14.7193 59.9254 14.7377 59.9307 14.757C59.9464 14.8149 59.9367 14.8691 59.9015 14.9197C59.871 14.9622 59.7738 15.0292 59.6097 15.1207L57.2127 16.6522C57.1479 16.6969 57.0619 16.754 56.9549 16.8236C56.8478 16.8932 56.7388 16.9426 56.6278 16.9719C56.5364 16.996 56.4486 16.9951 56.3645 16.969C56.2869 16.9412 56.2315 16.8663 56.1983 16.7441C56.1668 16.6284 56.1414 16.5352 56.1222 16.4645C56.1095 16.392 56.0952 16.3269 56.0795 16.269C56.0685 16.203 56.0567 16.1338 56.0439 16.0613C56.0378 15.9871 56.0254 15.8905 56.007 15.7713C55.6222 16.2863 55.2001 16.7284 54.7406 17.0976C54.2877 17.4652 53.7739 17.7247 53.1992 17.8763C52.5722 18.0417 51.9736 18.0411 51.4033 17.8746C50.8413 17.7128 50.3273 17.4315 49.8612 17.0307C49.3934 16.6235 48.9856 16.1282 48.6378 15.5446C48.2947 14.9529 48.0296 14.3131 47.8424 13.6252C47.5991 12.7316 47.5247 11.8795 47.6191 11.0691C47.7183 10.2505 47.9517 9.51362 48.3193 8.85849C48.6852 8.19694 49.1693 7.63514 49.7715 7.1731C50.3719 6.70463 51.0542 6.36962 51.8183 6.16807C52.2297 6.05954 52.6504 6.06226 53.0804 6.17623C53.5169 6.28847 53.9472 6.46783 54.3713 6.71428C54.3051 6.39409 54.2353 6.04732 54.1616 5.67397C54.0863 5.29419 54.01 4.91119 53.9329 4.52498C53.854 4.13235 53.7769 3.74614 53.7015 3.36636C53.6262 2.98658 53.5563 2.63981 53.4919 2.32604C53.4761 2.26818 53.4835 2.21801 53.5139 2.17553C53.5491 2.12489 53.6488 2.05382 53.8128 1.9623L56.3897 0.590068C56.458 0.55826 56.5448 0.50435 56.6501 0.428338C56.7554 0.352326 56.8636 0.299678 56.9746 0.270392C57.0595 0.247997 57.1431 0.246613 57.2255 0.266238C57.3143 0.28414 57.3736 0.347739 57.4034 0.457034C57.4069 0.469892 57.4115 0.499685 57.4172 0.546411C57.4277 0.584986 57.4347 0.610702 57.4382 0.623561L59.8703 14.5352Z" fill="#212121"/>
<path d="M71.5447 16.4518C71.5311 16.4758 71.5209 16.5007 71.5139 16.5264C71.5086 16.5457 71.5034 16.565 71.4981 16.5842C71.4544 16.745 71.4437 16.8869 71.4662 17.0099C71.4905 17.1266 71.5224 17.228 71.5619 17.3143C71.6097 17.3958 71.6536 17.4659 71.6936 17.5247C71.7354 17.5771 71.7519 17.6193 71.7431 17.6515C71.7186 17.7415 71.5979 17.7992 71.381 17.8247L68.444 18.2386C68.4357 18.2433 68.412 18.2405 68.3728 18.2302C68.3205 18.2164 68.2806 18.1576 68.2528 18.0538C68.2251 17.95 68.2043 17.8205 68.1906 17.6653C68.1816 17.5182 68.1753 17.3615 68.1715 17.1951C68.1761 17.0241 68.1804 16.8667 68.1845 16.7231C67.6454 17.0839 67.1077 17.3107 66.5714 17.4036C66.0352 17.4964 65.532 17.4808 65.0617 17.3568C64.5132 17.2121 64.01 16.9519 63.5523 16.5762C63.0946 16.2005 62.7228 15.7406 62.4369 15.1966C62.1527 14.6462 61.9714 14.0265 61.893 13.3374C61.8211 12.65 61.891 11.9174 62.1028 11.1395C62.353 10.2201 62.7152 9.41642 63.1895 8.72841C63.6703 8.04213 64.2169 7.48691 64.8293 7.06274C65.4417 6.63858 66.0951 6.35959 66.7895 6.22578C67.4921 6.08727 68.1896 6.10931 68.8819 6.29192C69.3717 6.42112 69.8082 6.64308 70.1915 6.9578C70.5766 7.26609 70.923 7.62622 71.2309 8.03818C71.3225 7.85564 71.3874 7.70737 71.4254 7.59337C71.4635 7.47937 71.501 7.39281 71.5381 7.33368C71.5817 7.27628 71.6388 7.24655 71.7094 7.24449C71.7817 7.236 71.8947 7.24514 72.0484 7.2719C72.5361 7.33164 73.0188 7.39695 73.4965 7.46783C73.9824 7.534 74.4836 7.62141 75 7.73006L71.5447 16.4518ZM69.6052 12.0435C69.7703 11.6943 69.9063 11.3615 70.0134 11.0452C70.1288 10.7243 70.2298 10.4305 70.3163 10.1639C70.2328 10.0592 70.1404 9.94867 70.0391 9.83236C69.9443 9.71777 69.8346 9.60617 69.7102 9.49755C69.5941 9.38422 69.4638 9.28439 69.3193 9.19804C69.1813 9.11341 69.0274 9.04871 68.8576 9.00392C68.505 8.91089 68.1772 8.94502 67.8743 9.1063C67.578 9.2693 67.3101 9.49494 67.0706 9.7832C66.8377 10.0732 66.6387 10.3928 66.4737 10.742C66.3152 11.093 66.1974 11.4099 66.1204 11.6928C65.8439 12.7086 65.7748 13.4897 65.9131 14.0361C66.0596 14.5777 66.3745 14.9123 66.8578 15.0398C67.0537 15.0915 67.2874 15.0945 67.5588 15.049C67.8301 15.0034 68.1162 14.9169 68.4168 14.7895L69.6052 12.0435Z" fill="#212121"/>
</svg>
