<svg width="31" height="30" viewBox="0 0 31 30" fill="none" xmlns="http://www.w3.org/2000/svg">
<path d="M21.919 20.0176C21.8513 20 21.7693 20.0098 21.6749 20.043C20.4117 20.5938 19.1832 20.9863 17.9897 21.2188C15.4119 21.7188 12.8996 21.457 10.4551 20.4355C9.77631 20.1504 8.83295 19.6699 7.62504 18.9902C7.59391 18.9668 7.55594 18.9532 7.51635 18.9512C7.47533 18.9492 7.44047 18.9531 7.40766 18.9688C7.37484 18.9844 7.35023 19.0039 7.33178 19.0293C7.31332 19.0547 7.30922 19.0898 7.32357 19.1348C7.33588 19.1777 7.36664 19.2266 7.41791 19.2793C7.63119 19.5176 7.89574 19.7715 8.20951 20.041C8.52328 20.3105 8.93959 20.6152 9.45844 20.9551C9.97728 21.2949 10.5207 21.5977 11.0847 21.8613C11.6507 22.125 12.307 22.3477 13.0555 22.5273C13.804 22.707 14.5526 22.7969 15.2991 22.7969C16.0414 22.7969 16.7633 22.7246 17.4626 22.584C18.164 22.4414 18.7546 22.2734 19.2366 22.0781C19.7164 21.8848 20.1594 21.668 20.5655 21.4336C20.9715 21.1992 21.2709 21 21.4658 20.8418C21.6606 20.6816 21.8 20.5566 21.88 20.4629C21.9744 20.3516 22.0215 20.2559 22.0215 20.1719C22.0236 20.084 21.9867 20.0332 21.919 20.0176V20.0176ZM15.8159 11.7988C15.5041 11.8242 15.1288 11.8789 14.6879 11.9609C14.247 12.041 13.8389 12.1426 13.4616 12.2617C13.0842 12.3809 12.6987 12.5469 12.307 12.7578C11.9132 12.9688 11.5789 13.2109 11.3021 13.4805C11.0252 13.75 10.7996 14.0879 10.6233 14.4961C10.4469 14.9023 10.3587 15.3496 10.3587 15.8379C10.3587 16.3672 10.4551 16.8379 10.652 17.2539C10.8468 17.6699 11.1073 17.9961 11.4354 18.2383C11.7615 18.4805 12.1327 18.6699 12.5428 18.8086C12.953 18.9473 13.3877 19.0098 13.8389 18.9922C14.2901 18.9746 14.731 18.9082 15.1596 18.791C15.5862 18.6758 15.9881 18.4902 16.3614 18.2383C16.7346 17.9863 17.0402 17.6875 17.2801 17.3457C17.3683 17.4746 17.4462 17.5703 17.516 17.6328L17.6944 17.8066C17.8133 17.9219 17.9958 18.0918 18.2419 18.3164C18.486 18.541 18.7362 18.7598 18.9864 18.9746L21.1274 17.0234L21.0043 16.9277C20.9162 16.8633 20.8116 16.7715 20.6926 16.6484C20.5737 16.5273 20.4547 16.3926 20.3399 16.248C20.223 16.1035 20.1225 15.9336 20.0384 15.7422C19.9543 15.5508 19.9113 15.3652 19.9113 15.1855V10.0527C19.9113 9.85547 19.8723 9.64258 19.7944 9.41211C19.7144 9.18359 19.5749 8.93359 19.3699 8.66406C19.1648 8.39453 18.9105 8.15234 18.607 7.94141C18.3014 7.73047 17.8954 7.55078 17.3847 7.40625C16.8761 7.26172 16.306 7.18945 15.6785 7.18945C15.0366 7.18945 14.4398 7.26172 13.882 7.40234C13.3262 7.54492 12.8504 7.73438 12.4526 7.97266C12.0568 8.21094 11.7163 8.48633 11.4333 8.80078C11.1503 9.11523 10.9391 9.44336 10.8017 9.78516C10.6643 10.127 10.5946 10.4727 10.5946 10.8223L13.3672 11.0547C13.48 10.7344 13.6318 10.457 13.8184 10.2188C14.0071 9.98047 14.1855 9.80859 14.3475 9.70117C14.5116 9.59375 14.6879 9.50781 14.8746 9.44336C15.0632 9.37891 15.1904 9.3457 15.256 9.33789C15.3216 9.33203 15.3729 9.33008 15.4119 9.33008C15.9594 9.33008 16.3388 9.48438 16.5521 9.79102C16.6854 9.97656 16.751 10.2578 16.751 10.6367V11.7422C16.4393 11.7539 16.1276 11.7734 15.8159 11.7988V11.7988ZM16.7531 14.7656C16.7531 15.0898 16.7079 15.3848 16.6198 15.6445C16.4311 16.2129 16.0722 16.5703 15.5452 16.7148C15.0858 16.8438 14.649 16.7793 14.2347 16.5234C13.7938 16.25 13.5744 15.8633 13.5744 15.3652C13.5744 14.9766 13.6769 14.6445 13.882 14.3672C14.0871 14.0918 14.3598 13.8848 14.7023 13.748C15.0448 13.6113 15.379 13.5137 15.7072 13.457C16.0332 13.3984 16.3839 13.3633 16.7531 13.3516V14.7656V14.7656ZM23.6273 19.041C23.5391 18.9355 23.3012 18.8672 22.9116 18.832C22.5219 18.7969 22.1835 18.7988 21.8923 18.8398C21.5786 18.875 21.2545 18.9609 20.9223 19.1016C20.588 19.2402 20.4424 19.3574 20.4793 19.4492L20.4937 19.4746L20.5121 19.4883L20.5409 19.4922H20.6352C20.6516 19.4922 20.6721 19.4902 20.7008 19.4883C20.7295 19.4863 20.7562 19.4824 20.7808 19.4805C20.8054 19.4785 20.8403 19.4746 20.8854 19.4727C20.9285 19.4707 20.9695 19.4648 21.0084 19.459C21.0146 19.459 21.0843 19.4531 21.2197 19.4414C21.355 19.4297 21.4535 19.4219 21.5129 19.416C21.5724 19.4102 21.6729 19.4043 21.8103 19.3984C21.9477 19.3926 22.0584 19.3926 22.1405 19.3984C22.2225 19.4043 22.3148 19.4121 22.4194 19.4199C22.524 19.4277 22.608 19.4453 22.6737 19.4727C22.7393 19.498 22.7885 19.5313 22.8193 19.5723C22.9259 19.7012 22.9054 19.9863 22.7578 20.4297C22.6101 20.873 22.4706 21.2266 22.3394 21.4883C22.282 21.5996 22.282 21.668 22.3394 21.6973C22.3968 21.7266 22.4768 21.6992 22.5834 21.6191C22.9034 21.3809 23.17 21.0215 23.3853 20.5391C23.5104 20.2539 23.6006 19.957 23.6539 19.6465C23.7032 19.3359 23.695 19.1348 23.6273 19.041V19.041Z" fill="black"/>
<path fill-rule="evenodd" clip-rule="evenodd" d="M15.3209 1C21.3004 1.00104 27.0138 4.07836 29.0174 9.73677C31.197 15.8924 29.7787 23.0784 24.481 26.8695C19.3095 30.5703 12.4147 29.0736 7.32517 25.26C2.45646 21.6118 -0.299072 15.5238 1.60985 9.73199C3.49007 4.0272 9.33792 0.998956 15.3209 1Z" stroke="#3F3F3F" stroke-width="1.5"/>
</svg>
